<svg width="1200" height="720" viewBox="0 0 1200 720" fill="none" xmlns="http://www.w3.org/2000/svg">
  <rect width="1200" height="720" rx="48" fill="transparent"/>
  <g opacity="0.95">
    <path d="M90 560C150 420 300 358 420 374" stroke="#D9B45F" stroke-width="8" stroke-linecap="round"/>
    <path d="M1110 560C1050 420 900 358 780 374" stroke="#D9B45F" stroke-width="8" stroke-linecap="round"/>
    <text x="122" y="426" fill="#14213D" font-size="260" font-weight="800" font-family="Inter, Arial, sans-serif">4</text>
    <text x="426" y="426" fill="#14213D" font-size="260" font-weight="800" font-family="Inter, Arial, sans-serif">0</text>
    <text x="782" y="426" fill="#14213D" font-size="260" font-weight="800" font-family="Inter, Arial, sans-serif">4</text>
    <g transform="translate(500 182)">
      <circle cx="100" cy="100" r="94" fill="#FEFBF6" stroke="#EAE7DF" stroke-width="4"/>
      <circle cx="100" cy="100" r="72" fill="#FFF8E9" stroke="#D9B45F" stroke-width="2"/>
      <path
      d="M100 42L117 89L166 90L127 120L140 167L100 141L60 167L73 120L34 90L83 89L100 42Z"
        fill="#14213D"
        stroke="#0E1A31"
        stroke-width="4"
        stroke-linejoin="round"
      />
      <circle cx="86" cy="106" r="4.5" fill="#FEFBF6"/>
      <circle cx="114" cy="106" r="4.5" fill="#FEFBF6"/>
      <path d="M86 120C90 124 110 124 114 120" stroke="#FEFBF6" stroke-width="4" stroke-linecap="round"/>
      <path d="M100 4V18" stroke="#14213D" stroke-width="4" stroke-linecap="round"/>
      <circle cx="100" cy="0" r="8" fill="#D9B45F" stroke="#14213D" stroke-width="4"/>
      <path d="M12 100H28" stroke="#D9B45F" stroke-width="4" stroke-linecap="round"/>
      <path d="M172 100H188" stroke="#D9B45F" stroke-width="4" stroke-linecap="round"/>
      <path d="M32 34L44 46" stroke="#D9B45F" stroke-width="4" stroke-linecap="round"/>
      <path d="M156 154L168 166" stroke="#D9B45F" stroke-width="4" stroke-linecap="round"/>
    </g>
  </g>
</svg>
