<svg width="320" height="320" viewBox="0 0 320 320" fill="none" xmlns="http://www.w3.org/2000/svg">
  <rect width="320" height="320" rx="40" fill="transparent"/>
  <g>
    <circle cx="160" cy="160" r="102" fill="#FEFBF6" stroke="#EAE7DF" stroke-width="4"/>
    <circle cx="160" cy="160" r="76" fill="#EEF2F7" stroke="#A8B2C5" stroke-width="2"/>
    <path d="M160 68L180 122L238 124L192 161L208 220L160 188L112 220L128 161L82 124L140 122L160 68Z" fill="#14213D" stroke="#0E1A31" stroke-width="4" stroke-linejoin="round"/>
    <circle cx="144" cy="156" r="5" fill="#FEFBF6"/>
    <circle cx="176" cy="156" r="5" fill="#FEFBF6"/>
    <path d="M144 171C150 175 170 175 176 171" stroke="#FEFBF6" stroke-width="4" stroke-linecap="round"/>
    <path d="M65 160C74 148 82 141 95 137" stroke="#7D8BA6" stroke-width="5" stroke-linecap="round"/>
    <path d="M255 160C246 148 238 141 225 137" stroke="#7D8BA6" stroke-width="5" stroke-linecap="round"/>
    <path d="M160 40V56" stroke="#14213D" stroke-width="4" stroke-linecap="round"/>
    <circle cx="160" cy="34" r="8" fill="#FEFBF6" stroke="#14213D" stroke-width="4"/>
    <path d="M108 96C96 84 90 76 85 64" stroke="#7D8BA6" stroke-width="4" stroke-linecap="round" opacity="0.4"/>
    <path d="M212 96C224 84 230 76 235 64" stroke="#7D8BA6" stroke-width="4" stroke-linecap="round" opacity="0.4"/>
    <circle cx="86" cy="214" r="8" fill="#FEFBF6" fill-opacity="0.9"/>
    <circle cx="234" cy="214" r="8" fill="#FEFBF6" fill-opacity="0.9"/>
    <path d="M86 214H102" stroke="#A8B2C5" stroke-width="4" stroke-linecap="round"/>
    <path d="M218 214H234" stroke="#A8B2C5" stroke-width="4" stroke-linecap="round"/>
  </g>
</svg>
